<?xml version="1.0" encoding="utf-8"?>
<!-- Generated by IcoMoon.io -->
<svg aria-hidden="true" style="position:absolute;width:0;height:0;overflow:hidden" xmlns="http://www.w3.org/2000/svg">
<defs>
<symbol id="icon-bed" viewBox="0 0 26 32">
<path d="M24.219 10.803h-22.198c-0.207 0-0.375-0.168-0.375-0.375v-7.789c0-0.207 0.168-0.375 0.375-0.375h22.198c0.207 0 0.375 0.168 0.375 0.375v7.789c-0 0.207-0.168 0.375-0.375 0.375zM2.396 10.053h21.448v-7.039h-21.448v7.039z"></path>
<path d="M22.498 10.803h-18.756c-0.207 0-0.375-0.168-0.375-0.375v-6.068c0-0.207 0.168-0.375 0.375-0.375h18.756c0.207 0 0.375 0.168 0.375 0.375v6.068c0 0.207-0.168 0.375-0.375 0.375v0zM4.117 10.053h18.006v-5.318h-18.006v5.318z"></path>
<path d="M11.989 10.803h-7.116c-0.831-0.001-1.505-0.675-1.506-1.506v-3.806c0.001-0.831 0.675-1.505 1.506-1.506h7.116c0.831 0.001 1.505 0.675 1.506 1.506v3.806c-0.001 0.831-0.675 1.505-1.506 1.506v0zM4.873 4.735c-0.417 0-0.755 0.339-0.756 0.756v3.806c0 0.417 0.339 0.755 0.756 0.756h7.116c0.417-0 0.756-0.339 0.756-0.756v-3.806c-0-0.417-0.339-0.756-0.756-0.756h-7.116z"></path>
<path d="M21.367 10.803h-7.116c-0.831-0.001-1.505-0.675-1.506-1.506v-3.806c0.001-0.831 0.675-1.505 1.506-1.506h7.116c0.831 0.001 1.505 0.675 1.506 1.506v3.806c-0.001 0.831-0.675 1.505-1.506 1.506v0zM14.251 4.735c-0.417 0-0.756 0.339-0.756 0.756v3.806c0 0.417 0.339 0.755 0.756 0.756h7.116c0.417-0 0.756-0.339 0.756-0.756v-3.806c-0-0.417-0.339-0.756-0.756-0.756h-7.116z"></path>
<path d="M24.491 29.736h-22.741c-0.831-0.001-1.505-0.675-1.506-1.506v-16.671c0.001-0.831 0.675-1.505 1.506-1.506h22.741c0.831 0.001 1.505 0.675 1.506 1.506v16.671c-0.001 0.831-0.675 1.505-1.506 1.506zM1.749 10.803c-0.417 0-0.756 0.339-0.756 0.756v16.671c0 0.417 0.339 0.755 0.756 0.756h22.741c0.417-0 0.756-0.339 0.756-0.756v-16.671c-0-0.417-0.339-0.755-0.756-0.756h-22.741z"></path>
<path d="M24.635 3.014h-23.030c-0.752-0.001-1.361-0.61-1.362-1.362v-0.291c0.001-0.752 0.61-1.361 1.362-1.362h23.030c0.752 0.001 1.361 0.61 1.362 1.362v0.291c-0.001 0.752-0.61 1.361-1.362 1.362zM1.605 0.75c-0.338 0-0.611 0.274-0.612 0.612v0.291c0 0.338 0.274 0.611 0.612 0.612h23.030c0.338-0 0.611-0.274 0.612-0.612v-0.291c-0-0.338-0.274-0.611-0.612-0.612h-23.030z"></path>
<path d="M24.635 32h-23.030c-0.752-0.001-1.361-0.61-1.362-1.362v-0.291c0.001-0.752 0.61-1.361 1.362-1.362h23.030c0.752 0.001 1.361 0.61 1.362 1.362v0.291c-0.001 0.752-0.61 1.361-1.362 1.362zM1.605 29.736c-0.338 0-0.611 0.274-0.612 0.612v0.291c0 0.338 0.274 0.611 0.612 0.612h23.030c0.338-0 0.611-0.274 0.612-0.612v-0.291c-0-0.338-0.274-0.611-0.612-0.612h-23.030z"></path>
</symbol>
<symbol id="icon-commode" viewBox="0 0 32 32">
<path d="M29.934 13.464h-27.869c-0.207 0-0.375-0.168-0.375-0.375v-8.151c0-0.207 0.168-0.375 0.375-0.375h27.869c0.207 0 0.375 0.168 0.375 0.375v8.151c-0 0.207-0.168 0.375-0.375 0.375zM2.441 12.714h27.119v-7.401h-27.119v7.401z"></path>
<path d="M29.934 21.615h-27.869c-0.207 0-0.375-0.168-0.375-0.375v-8.151c0-0.207 0.168-0.375 0.375-0.375h27.869c0.207 0 0.375 0.168 0.375 0.375v8.151c-0 0.207-0.168 0.375-0.375 0.375zM2.441 20.865h27.119v-7.401h-27.119v7.401z"></path>
<path d="M29.934 29.766h-27.869c-0.207 0-0.375-0.168-0.375-0.375v-8.151c0-0.207 0.168-0.375 0.375-0.375h27.869c0.207 0 0.375 0.168 0.375 0.375v8.151c-0 0.207-0.168 0.375-0.375 0.375zM2.441 29.016h27.119v-7.401h-27.119v7.401z"></path>
<path d="M16.701 9.388h-1.403c-0.207 0-0.375-0.168-0.375-0.375s0.168-0.375 0.375-0.375h1.403c0.207 0 0.375 0.168 0.375 0.375s-0.168 0.375-0.375 0.375z"></path>
<path d="M16.701 17.539h-1.403c-0.207 0-0.375-0.168-0.375-0.375s0.168-0.375 0.375-0.375h1.403c0.207 0 0.375 0.168 0.375 0.375s-0.168 0.375-0.375 0.375z"></path>
<path d="M16.701 25.69h-1.403c-0.207 0-0.375-0.168-0.375-0.375s0.168-0.375 0.375-0.375h1.403c0.207 0 0.375 0.168 0.375 0.375s-0.168 0.375-0.375 0.375z"></path>
<path d="M31 5.313h-30c-0.552-0.001-0.999-0.448-1-1v-1.079c0.001-0.552 0.448-0.999 1-1h30c0.552 0.001 0.999 0.448 1 1v1.079c-0.001 0.552-0.448 0.999-1 1zM1 2.984c-0.138 0-0.25 0.112-0.25 0.25v1.079c0 0.138 0.112 0.25 0.25 0.25h30c0.138-0 0.25-0.112 0.25-0.25v-1.079c-0-0.138-0.112-0.25-0.25-0.25h-30z"></path>
</symbol>
<symbol id="icon-facebook" viewBox="0 0 32 32">
<path d="M18.914 32v-14.4h4.372l0.714-6.4h-5.086v-3.117c0-1.648 0.042-3.283 2.345-3.283h2.332v-4.576c0-0.069-2.003-0.224-4.030-0.224-4.233 0-6.884 2.651-6.884 7.52v3.68h-4.677v6.4h4.677v14.4h6.237z"></path>
</symbol>
<symbol id="icon-instagram" viewBox="0 0 32 32">
<path d="M9.391 0.196c-2.605 0.118-4.862 0.754-6.685 2.57-1.829 1.825-2.458 4.091-2.576 6.668-0.073 1.609-0.501 13.763 0.74 16.95 0.837 2.15 2.487 3.804 4.657 4.644 1.013 0.394 2.168 0.661 3.864 0.738 14.177 0.642 19.433 0.292 21.649-5.382 0.393-1.010 0.664-2.165 0.739-3.856 0.648-14.214-0.105-17.295-2.576-19.763-1.96-1.955-4.265-3.286-19.812-2.57zM9.522 28.908c-1.552-0.070-2.394-0.329-2.956-0.546-1.414-0.549-2.476-1.607-3.022-3.013-0.946-2.422-0.632-13.925-0.548-15.786 0.083-1.823 0.452-3.489 1.739-4.775 1.592-1.588 3.649-2.366 17.654-1.734 1.828 0.083 3.498 0.451 4.787 1.734 1.592 1.588 2.382 3.661 1.739 17.612-0.070 1.548-0.33 2.389-0.548 2.949-1.441 3.692-4.756 4.205-18.845 3.559zM22.543 7.503c0 1.051 0.855 1.906 1.91 1.906s1.912-0.854 1.912-1.906c0-1.051-0.857-1.906-1.912-1.906s-1.91 0.854-1.91 1.906zM7.78 15.981c0 4.504 3.66 8.155 8.175 8.155s8.175-3.651 8.175-8.155c0-4.504-3.66-8.153-8.175-8.153s-8.175 3.649-8.175 8.153zM10.649 15.981c0-2.922 2.375-5.293 5.306-5.293s5.306 2.371 5.306 5.293c0 2.924-2.375 5.295-5.306 5.295s-5.306-2.371-5.306-5.295z"></path>
</symbol>
<symbol id="icon-kitchen" viewBox="0 0 32 32">
<path d="M21.692 29.162h-11.384c-0.207 0-0.375-0.168-0.375-0.375v-8.718c0-0.207 0.168-0.375 0.375-0.375h11.384c0.207 0 0.375 0.168 0.375 0.375v8.718c-0 0.207-0.168 0.375-0.375 0.375zM10.683 28.412h10.634v-7.968h-10.634v7.968z"></path>
<path d="M21.692 30.766h-11.384c-0.207 0-0.375-0.168-0.375-0.375v-1.605c0-0.207 0.168-0.375 0.375-0.375h11.384c0.207 0 0.375 0.168 0.375 0.375v1.605c-0 0.207-0.168 0.375-0.375 0.375zM10.683 30.016h10.634v-0.855h-10.634v0.855z"></path>
<path d="M21.692 20.443h-11.384c-0.207 0-0.375-0.168-0.375-0.375v-3.696c0-0.207 0.168-0.375 0.375-0.375h11.384c0.207 0 0.375 0.168 0.375 0.375v3.696c-0 0.207-0.168 0.375-0.375 0.375zM10.683 19.693h10.634v-2.946h-10.634v2.946z"></path>
<path d="M16 19.435c-0.671 0-1.215-0.544-1.215-1.215s0.544-1.215 1.215-1.215c0.671 0 1.215 0.544 1.215 1.215s-0.544 1.215-1.215 1.215zM16 17.755c-0.257 0-0.465 0.208-0.465 0.465s0.208 0.465 0.465 0.465c0.257 0 0.465-0.208 0.465-0.465s-0.208-0.465-0.465-0.465z"></path>
<path d="M19.157 19.435c-0.671 0-1.215-0.544-1.215-1.215s0.544-1.215 1.215-1.215c0.671 0 1.215 0.544 1.215 1.215s-0.544 1.215-1.215 1.215zM19.157 17.755c-0.257 0-0.465 0.208-0.465 0.465s0.208 0.465 0.465 0.465c0.257 0 0.465-0.208 0.465-0.465s-0.208-0.465-0.465-0.465z"></path>
<path d="M12.843 19.435c-0.671 0-1.215-0.544-1.215-1.215s0.544-1.215 1.215-1.215 1.215 0.544 1.215 1.215c-0.001 0.671-0.544 1.215-1.215 1.215zM12.843 17.755c-0.257 0-0.465 0.208-0.465 0.465s0.208 0.465 0.465 0.465c0.257 0 0.465-0.208 0.465-0.465s-0.208-0.465-0.465-0.465z"></path>
<path d="M19.491 22.636h-6.981c-0.487-0-0.882-0.395-0.882-0.882s0.395-0.881 0.882-0.882h6.981c0.487-0 0.882 0.394 0.882 0.882s-0.394 0.882-0.882 0.882c-0 0-0 0-0.001 0zM12.509 21.622c-0.073 0-0.132 0.059-0.132 0.132s0.059 0.132 0.132 0.132h6.981c0.073 0 0.132-0.059 0.132-0.132s-0.059-0.132-0.132-0.132c-0 0-0 0-0 0h-6.981z"></path>
<path d="M19.157 27.964h-6.315c-0.207 0-0.375-0.168-0.375-0.375v-5.329c0-0.207 0.168-0.375 0.375-0.375h6.315c0.207 0 0.375 0.168 0.375 0.375v5.329c0 0.207-0.168 0.375-0.375 0.375zM13.218 27.214h5.565v-4.579h-5.565v4.579z"></path>
<path d="M13.501 16.747c-0.207 0-0.375-0.168-0.375-0.375v-0.931c0-0.207 0.168-0.375 0.375-0.375s0.375 0.168 0.375 0.375v0.931c0 0.207-0.168 0.375-0.375 0.375z"></path>
<path d="M15.279 16.747c-0.207 0-0.375-0.168-0.375-0.375v-0.556h-0.5c-0.207 0-0.375-0.168-0.375-0.375s0.168-0.375 0.375-0.375h0.875c0.207 0 0.375 0.168 0.375 0.375v0.931c-0 0.207-0.168 0.375-0.375 0.375z"></path>
<path d="M11.723 16.747c-0.207 0-0.375-0.168-0.375-0.375v-0.931c0-0.207 0.168-0.375 0.375-0.375h0.875c0.207 0 0.375 0.168 0.375 0.375s-0.168 0.375-0.375 0.375h-0.5v0.556c0 0.207-0.168 0.375-0.375 0.375z"></path>
<path d="M18.499 16.747c-0.207 0-0.375-0.168-0.375-0.375v-0.931c0-0.207 0.168-0.375 0.375-0.375s0.375 0.168 0.375 0.375v0.931c0 0.207-0.168 0.375-0.375 0.375z"></path>
<path d="M16.721 16.747c-0.207 0-0.375-0.168-0.375-0.375v-0.931c0-0.207 0.168-0.375 0.375-0.375h0.875c0.207 0 0.375 0.168 0.375 0.375s-0.168 0.375-0.375 0.375h-0.5v0.556c0 0.207-0.168 0.375-0.375 0.375z"></path>
<path d="M20.277 16.747c-0.207 0-0.375-0.168-0.375-0.375v-0.556h-0.5c-0.207 0-0.375-0.168-0.375-0.375s0.168-0.375 0.375-0.375h0.875c0.207 0 0.375 0.168 0.375 0.375v0.931c-0 0.207-0.168 0.375-0.375 0.375z"></path>
<path d="M23.505 18.113h-0.671c-0.207 0-0.375-0.168-0.375-0.375s0.168-0.375 0.375-0.375h0.671c0.207 0 0.375 0.168 0.375 0.375s-0.168 0.375-0.375 0.375z"></path>
<path d="M24.646 30.766h-2.954c-0.207 0-0.375-0.168-0.375-0.375v-14.019c0-0.207 0.168-0.375 0.375-0.375h2.954c0.207 0 0.375 0.168 0.375 0.375v14.019c-0 0.207-0.168 0.375-0.375 0.375zM22.067 30.016h2.204v-13.269h-2.204v13.269z"></path>
<path d="M31.625 23.757h-6.979c-0.207 0-0.375-0.168-0.375-0.375v-7.010c0-0.207 0.168-0.375 0.375-0.375h6.979c0.207 0 0.375 0.168 0.375 0.375v7.010c0 0.207-0.168 0.375-0.375 0.375zM25.021 23.007h6.229v-6.26h-6.229v6.26z"></path>
<path d="M29.035 18.113h-1.799c-0.207 0-0.375-0.168-0.375-0.375s0.168-0.375 0.375-0.375h1.799c0.207 0 0.375 0.168 0.375 0.375s-0.168 0.375-0.375 0.375z"></path>
<path d="M6.241 18.113h-1.799c-0.207 0-0.375-0.168-0.375-0.375s0.168-0.375 0.375-0.375h1.799c0.207 0 0.375 0.168 0.375 0.375s-0.168 0.375-0.375 0.375z"></path>
<path d="M31.625 30.766h-6.979c-0.207 0-0.375-0.168-0.375-0.375v-7.010c0-0.207 0.168-0.375 0.375-0.375h6.979c0.207 0 0.375 0.168 0.375 0.375v7.010c0 0.207-0.168 0.375-0.375 0.375zM25.021 30.016h6.229v-6.26h-6.229v6.26z"></path>
<path d="M29.035 25.122h-1.799c-0.207 0-0.375-0.168-0.375-0.375s0.168-0.375 0.375-0.375h1.799c0.207 0 0.375 0.168 0.375 0.375s-0.168 0.375-0.375 0.375z"></path>
<path d="M5.341 30.766h-4.966c-0.207 0-0.375-0.168-0.375-0.375v-10.323c0-0.207 0.168-0.375 0.375-0.375h4.966c0.207 0 0.375 0.168 0.375 0.375v10.323c0 0.207-0.168 0.375-0.375 0.375zM0.75 30.016h4.216v-9.573h-4.216v9.573z"></path>
<path d="M10.308 30.766h-4.966c-0.207 0-0.375-0.168-0.375-0.375v-10.323c0-0.207 0.168-0.375 0.375-0.375h4.966c0.207 0 0.375 0.168 0.375 0.375v10.323c0 0.207-0.168 0.375-0.375 0.375zM5.716 30.016h4.216v-9.573h-4.216v9.573z"></path>
<path d="M6.527 26.229c-0.207 0-0.375-0.168-0.375-0.375v-1.248c0-0.207 0.168-0.375 0.375-0.375s0.375 0.168 0.375 0.375v1.248c0 0.207-0.168 0.375-0.375 0.375z"></path>
<path d="M4.156 26.229c-0.207 0-0.375-0.168-0.375-0.375v-1.248c0-0.207 0.168-0.375 0.375-0.375s0.375 0.168 0.375 0.375v1.248c0 0.207-0.168 0.375-0.375 0.375z"></path>
<path d="M10.308 20.443h-9.933c-0.207 0-0.375-0.168-0.375-0.375v-3.696c0-0.207 0.168-0.375 0.375-0.375h9.933c0.207 0 0.375 0.168 0.375 0.375v3.696c0 0.207-0.168 0.375-0.375 0.375zM0.75 19.693h9.183v-2.946h-9.183v2.946z"></path>
<path d="M21.269 8.889h-10.539c-0.44-0.001-0.797-0.357-0.798-0.798v-1.077c0-0.44 0.357-0.797 0.798-0.798h10.539c0.44 0 0.797 0.357 0.798 0.798v1.077c-0 0.44-0.357 0.797-0.798 0.798zM10.731 6.966c-0.026 0-0.048 0.021-0.048 0.048v1.077c0 0.026 0.021 0.048 0.048 0.048h10.539c0.026-0 0.048-0.021 0.048-0.048v-1.077c-0-0.026-0.021-0.048-0.048-0.048h-10.539z"></path>
<path d="M20.488 6.966h-8.975c-0.436 0-0.79-0.354-0.79-0.79 0-0.243 0.112-0.473 0.303-0.622l0.288-0.225c1.148-0.892 1.817-2.266 1.813-3.72 0-0.207 0.168-0.375 0.375-0.375h4.998c0.207 0 0.375 0.168 0.375 0.375-0.004 1.454 0.665 2.827 1.813 3.72l0.288 0.225c0.344 0.269 0.404 0.765 0.136 1.109-0.15 0.192-0.379 0.303-0.622 0.303zM13.864 1.984c-0.102 1.55-0.862 2.982-2.088 3.935l-0.288 0.225c-0.017 0.014-0.021 0.039-0.007 0.056 0.008 0.010 0.019 0.015 0.032 0.015h8.975c0.022 0 0.040-0.018 0.040-0.040 0-0.012-0.006-0.024-0.015-0.032h-0l-0.288-0.225c-1.226-0.953-1.986-2.385-2.088-3.935l-4.273-0z"></path>
<path d="M30.464 8.889h-5.968c-0.519 0-0.94-0.421-0.94-0.94s0.421-0.94 0.94-0.94h5.968c0.519 0 0.94 0.421 0.94 0.94s-0.421 0.94-0.94 0.94zM24.497 7.759c-0.105 0-0.19 0.085-0.19 0.19s0.085 0.19 0.19 0.19h5.968c0.105 0 0.19-0.085 0.19-0.19s-0.085-0.19-0.19-0.19h-5.968z"></path>
<path d="M7.503 8.889h-5.968c-0.519 0-0.94-0.421-0.94-0.94s0.421-0.94 0.94-0.94h5.968c0.519 0 0.94 0.421 0.94 0.94s-0.421 0.94-0.94 0.94zM1.536 7.759c-0.105 0-0.19 0.085-0.19 0.19s0.085 0.19 0.19 0.19h5.968c0.105 0 0.19-0.085 0.19-0.19s-0.085-0.19-0.19-0.19h-5.968z"></path>
<path d="M6.905 7.759h-1.525c-0.207 0-0.375-0.168-0.375-0.375v-1.289c0-0.207 0.168-0.375 0.375-0.375h1.525c0.207 0 0.375 0.168 0.375 0.375v1.289c0 0.207-0.168 0.375-0.375 0.375zM5.754 7.009h0.775v-0.539h-0.775v0.539z"></path>
<path d="M7.264 6.47h-2.244c-0.207 0-0.375-0.168-0.375-0.375s0.168-0.375 0.375-0.375h2.244c0.207 0 0.375 0.168 0.375 0.375s-0.168 0.375-0.375 0.375z"></path>
<path d="M3.66 7.759h-1.525c-0.207 0-0.375-0.168-0.375-0.375v-1.289c0-0.207 0.168-0.375 0.375-0.375h1.525c0.207 0 0.375 0.168 0.375 0.375v1.289c0 0.207-0.168 0.375-0.375 0.375zM2.51 7.009h0.775v-0.539h-0.775l-0 0.539z"></path>
<path d="M4.019 6.47h-2.244c-0.207 0-0.375-0.168-0.375-0.375s0.168-0.375 0.375-0.375h2.244c0.207 0 0.375 0.168 0.375 0.375s-0.168 0.375-0.375 0.375z"></path>
<path d="M6.905 6.47h-1.525c-0.207 0-0.375-0.168-0.375-0.375v-1.289c0-0.207 0.168-0.375 0.375-0.375h1.525c0.207 0 0.375 0.168 0.375 0.375v1.289c0 0.207-0.168 0.375-0.375 0.375zM5.754 5.72h0.775v-0.539h-0.775v0.539z"></path>
<path d="M7.264 5.181h-2.244c-0.207 0-0.375-0.168-0.375-0.375s0.168-0.375 0.375-0.375h2.244c0.207 0 0.375 0.168 0.375 0.375s-0.168 0.375-0.375 0.375z"></path>
<path d="M3.66 6.47h-1.525c-0.207 0-0.375-0.168-0.375-0.375v-1.289c0-0.207 0.168-0.375 0.375-0.375h1.525c0.207 0 0.375 0.168 0.375 0.375v1.289c0 0.207-0.168 0.375-0.375 0.375zM2.51 5.72h0.775v-0.539h-0.775l-0 0.539z"></path>
<path d="M4.019 5.181h-2.244c-0.207 0-0.375-0.168-0.375-0.375s0.168-0.375 0.375-0.375h2.244c0.207 0 0.375 0.168 0.375 0.375s-0.168 0.375-0.375 0.375z"></path>
<path d="M27.48 7.759c-1.337-0-2.42-1.084-2.42-2.421 0-0.455 0.129-0.901 0.371-1.287 0.069-0.109 0.189-0.175 0.317-0.175h3.464c0.129 0 0.249 0.066 0.317 0.175 0.711 1.132 0.37 2.626-0.762 3.337-0.386 0.242-0.832 0.371-1.287 0.371zM25.97 4.626c-0.393 0.834-0.035 1.83 0.799 2.223s1.829 0.035 2.223-0.799c0.212-0.451 0.212-0.973 0-1.423l-3.022-0z"></path>
<path d="M27.445 4.626c-0.207 0-0.375-0.168-0.375-0.375v-2.413c0-0.207 0.168-0.375 0.375-0.375s0.375 0.168 0.375 0.375v2.413c0 0.207-0.168 0.375-0.375 0.375z"></path>
<path d="M27.445 4.626c-0.207 0-0.375-0.168-0.375-0.375 0-0.099 0.040-0.195 0.11-0.265l1.298-1.298c0.148-0.145 0.385-0.143 0.53 0.005 0.143 0.146 0.143 0.379-0 0.525l-1.298 1.298c-0.070 0.070-0.166 0.11-0.265 0.11z"></path>
<path d="M27.445 4.626c-0.099 0-0.195-0.039-0.265-0.11l-1.298-1.298c-0.148-0.145-0.151-0.382-0.006-0.53s0.382-0.151 0.53-0.006c0.002 0.002 0.004 0.004 0.006 0.006l1.298 1.298c0.146 0.146 0.146 0.384 0 0.53-0.070 0.070-0.166 0.11-0.265 0.11z"></path>
<path d="M19.474 15.816h-1.829c-1.037-0.001-1.877-0.841-1.878-1.879v-0.881c0-0.207 0.168-0.375 0.375-0.375h4.836c0.207 0 0.375 0.168 0.375 0.375v0.881c-0.001 1.037-0.842 1.877-1.878 1.879zM16.517 13.431v0.507c0.001 0.623 0.506 1.128 1.128 1.128h1.829c0.623-0.001 1.128-0.505 1.128-1.128v-0.507h-4.086z"></path>
<path d="M21.692 14.092h-0.714c-0.207 0-0.375-0.168-0.375-0.375s0.168-0.375 0.375-0.375h0.714c0.207 0 0.375 0.168 0.375 0.375s-0.168 0.375-0.375 0.375z"></path>
<path d="M16.020 14.092h-0.714c-0.207 0-0.375-0.168-0.375-0.375s0.168-0.375 0.375-0.375h0.714c0.207 0 0.375 0.168 0.375 0.375s-0.168 0.375-0.375 0.375z"></path>
<path d="M20.978 13.431h-4.836c-0.207 0-0.375-0.168-0.375-0.375 0-0.076 0.023-0.15 0.066-0.212 0.525-0.763 1.57-1.238 2.727-1.238s2.202 0.474 2.727 1.238c0.117 0.171 0.074 0.404-0.097 0.521-0.062 0.043-0.137 0.066-0.212 0.066zM17.149 12.681h2.822c-0.891-0.433-1.931-0.433-2.822 0z"></path>
<path d="M18.102 12.385c-0.092 0-0.181-0.034-0.249-0.095-0.44-0.391-0.48-1.064-0.089-1.504s1.064-0.48 1.504-0.089c0.44 0.391 0.48 1.064 0.089 1.504-0.028 0.032-0.058 0.061-0.089 0.089-0.154 0.139-0.391 0.126-0.53-0.027s-0.126-0.391 0.028-0.53c0.001-0.001 0.002-0.002 0.004-0.003 0.13-0.115 0.143-0.314 0.027-0.445s-0.314-0.143-0.445-0.028c-0.13 0.115-0.143 0.315-0.028 0.445 0.009 0.010 0.018 0.019 0.027 0.027 0.155 0.138 0.169 0.375 0.031 0.529-0.071 0.080-0.173 0.126-0.28 0.126z"></path>
<path d="M4.449 16.747h-1.584c-0.207 0-0.375-0.168-0.375-0.375v-4.028c0-0.207 0.168-0.375 0.375-0.375h1.584c0.207 0 0.375 0.168 0.375 0.375v4.028c0 0.207-0.168 0.375-0.375 0.375zM3.24 15.997h0.834v-3.278h-0.834v3.278z"></path>
<path d="M2.865 16.747h-1.584c-0.207 0-0.375-0.168-0.375-0.375v-4.028c0-0.207 0.168-0.375 0.375-0.375h1.584c0.207 0 0.375 0.168 0.375 0.375v4.028c0 0.207-0.168 0.375-0.375 0.375zM1.656 15.997h0.834v-3.278h-0.834l-0 3.278z"></path>
<path d="M7.928 16.747h-0.707c-0.716-0.001-1.295-0.581-1.296-1.296v-1.315c0-0.207 0.168-0.375 0.375-0.375h2.55c0.207 0 0.375 0.168 0.375 0.375v1.315c-0.001 0.716-0.581 1.295-1.296 1.296zM6.674 14.511v0.94c0 0.302 0.245 0.546 0.546 0.546h0.707c0.302-0 0.546-0.245 0.546-0.546v-0.94l-1.8-0z"></path>
<path d="M9.068 14.511h-2.988c-0.391-0-0.708-0.317-0.708-0.708v-0.389c0-0.391 0.317-0.708 0.708-0.708h2.988c0.391 0 0.708 0.317 0.708 0.708v0.389c-0 0.391-0.317 0.708-0.708 0.708zM6.122 13.761h2.905v-0.306h-2.905v0.306z"></path>
<path d="M24.95 16.747h-1.931c-0.207 0-0.375-0.168-0.375-0.375v-2.639c0-0.207 0.168-0.375 0.375-0.375h1.931c0.207 0 0.375 0.168 0.375 0.375v2.639c-0 0.207-0.168 0.375-0.375 0.375zM23.395 15.997h1.181v-1.889h-1.181v1.889z"></path>
<path d="M24.95 14.108h-1.931c-0.207 0-0.375-0.168-0.375-0.375v-1.153c0-0.207 0.168-0.375 0.375-0.375h1.931c0.207 0 0.375 0.168 0.375 0.375v1.153c-0 0.207-0.168 0.375-0.375 0.375zM23.395 13.358h1.181v-0.403h-1.181v0.403z"></path>
<path d="M29.58 15.479c-0.613 0-1.093-0.59-1.093-1.343s0.48-1.343 1.093-1.343c0.613 0 1.093 0.59 1.093 1.343s-0.48 1.343-1.093 1.343zM29.58 13.543c-0.162 0-0.343 0.253-0.343 0.593s0.181 0.593 0.343 0.593 0.343-0.253 0.343-0.593c0-0.339-0.181-0.593-0.343-0.593z"></path>
<path d="M29.58 13.536c-0.175 0-0.326-0.121-0.366-0.291l-0.573-2.5c-0.119-0.518 0.205-1.035 0.724-1.154s1.035 0.205 1.154 0.724c0.032 0.142 0.032 0.289 0 0.43l-0.573 2.5c-0.039 0.17-0.191 0.291-0.366 0.291zM29.58 10.316c-0.118 0-0.213 0.095-0.213 0.213 0 0.016 0.002 0.032 0.005 0.048l0.208 0.906 0.208-0.906c0.026-0.115-0.045-0.229-0.16-0.255-0.016-0.004-0.032-0.005-0.048-0.005z"></path>
<path d="M26.883 13.536c-0.175 0-0.326-0.121-0.366-0.291l-0.573-2.5c-0.119-0.518 0.205-1.035 0.724-1.154s1.035 0.205 1.154 0.724c0.032 0.142 0.032 0.289 0 0.43l-0.573 2.5c-0.039 0.17-0.191 0.291-0.366 0.291zM26.883 10.316c-0.118 0-0.213 0.095-0.213 0.213 0 0.016 0.002 0.032 0.005 0.048l0.208 0.906 0.208-0.906c0.026-0.115-0.045-0.229-0.16-0.255-0.016-0.004-0.032-0.005-0.048-0.005z"></path>
<path d="M27.744 14.748h-1.723c-0.187 0-0.345-0.137-0.371-0.322-0.065-0.433 0.062-0.873 0.347-1.205 0.242-0.28 0.565-0.44 0.886-0.44s0.644 0.16 0.886 0.44c0.285 0.332 0.411 0.772 0.346 1.205-0.026 0.185-0.185 0.322-0.371 0.322zM26.411 13.998h0.942c-0.028-0.105-0.080-0.203-0.152-0.285-0.095-0.11-0.221-0.181-0.32-0.181s-0.224 0.071-0.32 0.181c-0.071 0.083-0.123 0.18-0.151 0.285z"></path>
</symbol>
<symbol id="icon-living-room" viewBox="0 0 32 32">
<path d="M14.933 27.897h-9.568c-0.796-0.001-1.441-0.646-1.442-1.442v-3.717c0.001-0.796 0.646-1.441 1.442-1.442h9.568c0.796 0.001 1.441 0.646 1.442 1.442v3.717c-0.001 0.796-0.646 1.441-1.442 1.442zM5.365 22.046c-0.382 0-0.692 0.31-0.692 0.692v3.717c0 0.382 0.31 0.692 0.692 0.692h9.568c0.382-0 0.692-0.31 0.692-0.692v-3.717c-0-0.382-0.31-0.692-0.692-0.692h-9.568z"></path>
<path d="M3.231 27.897h-1.788c-0.796-0.001-1.441-0.646-1.442-1.442v-7.116c0.001-0.796 0.646-1.441 1.442-1.442h1.788c0.796 0.001 1.441 0.646 1.442 1.442v7.116c-0.001 0.796-0.646 1.441-1.442 1.442v0zM1.442 18.647c-0.382 0-0.692 0.31-0.692 0.692v7.116c0 0.382 0.31 0.692 0.692 0.692h1.788c0.382-0 0.692-0.31 0.692-0.692v-7.116c-0-0.382-0.31-0.692-0.692-0.692h-1.788z"></path>
<path d="M27.702 24.972h-23.405c-0.207 0-0.375-0.168-0.375-0.375s0.168-0.375 0.375-0.375h23.405c0.207 0 0.375 0.168 0.375 0.375s-0.168 0.375-0.375 0.375z"></path>
<path d="M14.933 22.046h-9.568c-0.796-0.001-1.441-0.646-1.442-1.442v-5.711c0.001-0.796 0.646-1.441 1.442-1.442h9.568c0.796 0.001 1.441 0.646 1.442 1.442v5.711c-0.001 0.796-0.646 1.441-1.442 1.442zM5.365 14.201c-0.382 0-0.692 0.31-0.692 0.692v5.711c0 0.382 0.31 0.692 0.692 0.692h9.568c0.382-0 0.692-0.31 0.692-0.692v-5.711c-0-0.382-0.31-0.692-0.692-0.692l-9.568-0z"></path>
<path d="M26.635 22.046h-9.568c-0.796-0.001-1.441-0.646-1.442-1.442v-5.711c0.001-0.796 0.646-1.441 1.442-1.442h9.568c0.796 0.001 1.441 0.646 1.442 1.442v5.711c-0.001 0.796-0.646 1.441-1.442 1.442v0zM17.067 14.201c-0.382 0-0.692 0.31-0.692 0.692v5.711c0 0.382 0.31 0.692 0.692 0.692h9.568c0.382-0 0.692-0.31 0.692-0.692v-5.711c-0-0.382-0.31-0.692-0.692-0.692l-9.568-0z"></path>
<path d="M26.635 27.897h-9.568c-0.796-0.001-1.441-0.646-1.442-1.442v-3.717c0.001-0.796 0.646-1.441 1.442-1.442h9.568c0.796 0.001 1.441 0.646 1.442 1.442v3.717c-0.001 0.796-0.646 1.441-1.442 1.442v0zM17.067 22.046c-0.382 0-0.692 0.31-0.692 0.692v3.717c0 0.382 0.31 0.692 0.692 0.692h9.568c0.382-0 0.692-0.31 0.692-0.692v-3.717c-0-0.382-0.31-0.692-0.692-0.692h-9.568z"></path>
<path d="M30.558 27.897h-1.788c-0.796-0.001-1.441-0.646-1.442-1.442v-7.116c0.001-0.796 0.646-1.441 1.442-1.442h1.788c0.796 0.001 1.441 0.646 1.442 1.442v7.116c-0.001 0.796-0.646 1.441-1.442 1.442zM28.769 18.647c-0.382 0-0.692 0.31-0.692 0.692v7.116c0 0.382 0.31 0.692 0.692 0.692h1.788c0.382-0 0.692-0.31 0.692-0.692v-7.116c-0-0.382-0.31-0.692-0.692-0.692h-1.788z"></path>
<path d="M16.877 22.046h-1.753c-0.207 0-0.375-0.168-0.375-0.375s0.168-0.375 0.375-0.375h1.753c0.207 0 0.375 0.168 0.375 0.375s-0.168 0.375-0.375 0.375z"></path>
<path d="M22.864 12.364h-13.728c-0.207 0-0.375-0.168-0.375-0.375v-8.909c0-0.207 0.168-0.375 0.375-0.375h13.728c0.207 0 0.375 0.168 0.375 0.375v8.909c0 0.207-0.168 0.375-0.375 0.375zM9.511 11.614h12.978v-8.16h-12.978v8.16z"></path>
<path d="M21.615 11.115h-11.23c-0.207 0-0.375-0.168-0.375-0.375v-6.411c0-0.207 0.168-0.375 0.375-0.375h11.23c0.207 0 0.375 0.168 0.375 0.375v6.411c-0 0.207-0.168 0.375-0.375 0.375zM10.76 10.365h10.48v-5.661h-10.48v5.661z"></path>
<path d="M11.729 9.741c-0.207 0-0.375-0.168-0.375-0.375 0-0.099 0.040-0.195 0.11-0.265l1.928-1.928c0.146-0.146 0.384-0.146 0.53 0l1.17 1.17c0.146 0.146 0.146 0.384 0 0.53s-0.384 0.146-0.53 0l-0.905-0.905-1.663 1.663c-0.070 0.070-0.166 0.11-0.265 0.11v0z"></path>
<path d="M20.271 9.722c-0.099 0-0.195-0.039-0.265-0.11-0.456-0.456-0.913-0.913-1.369-1.37-0.514-0.513-1.027-1.027-1.54-1.54l-0.241-0.24c-0.076-0.076-0.152-0.151-0.227-0.227l-2.087 2.087c-0.146 0.146-0.384 0.146-0.53 0s-0.146-0.384 0-0.53l2.352-2.352c0.070-0.070 0.166-0.11 0.265-0.11h0c0.1 0 0.195 0.040 0.265 0.11 0.164 0.164 0.328 0.328 0.492 0.492l0.241 0.241c0.513 0.514 1.026 1.027 1.54 1.54 0.456 0.457 0.912 0.913 1.369 1.37 0.146 0.146 0.146 0.384 0 0.53-0.070 0.070-0.166 0.11-0.265 0.11v0z"></path>
<path d="M18.902 8.352c-0.099 0-0.195-0.039-0.265-0.11-0.514-0.514-1.028-1.027-1.541-1.541-0.107-0.107-0.139-0.267-0.082-0.407 0.326-0.795 1.234-1.175 2.030-0.85s1.175 1.234 0.85 2.030c-0.158 0.386-0.464 0.692-0.85 0.85-0.045 0.019-0.093 0.028-0.142 0.028v0zM17.83 6.375c0.378 0.378 0.756 0.756 1.134 1.134 0.345-0.282 0.396-0.79 0.114-1.134s-0.79-0.396-1.134-0.114c-0.042 0.034-0.080 0.072-0.114 0.114z"></path>
<path d="M29.664 29.295c-0.453 0.001-0.848-0.308-0.957-0.748l-0.233-0.934c-0.050-0.201 0.072-0.404 0.273-0.455 0.030-0.007 0.060-0.011 0.091-0.011h1.653c0.207 0 0.375 0.168 0.375 0.375 0 0.031-0.004 0.061-0.011 0.091l-0.233 0.934c-0.109 0.44-0.504 0.748-0.957 0.748v0zM29.317 27.897l0.117 0.468c0.032 0.127 0.16 0.204 0.287 0.172 0.085-0.021 0.151-0.087 0.172-0.172l0.117-0.468-0.693 0z"></path>
<path d="M2.336 29.295c-0.453 0.001-0.848-0.308-0.957-0.748l-0.233-0.934c-0.050-0.201 0.072-0.404 0.273-0.455 0.030-0.007 0.060-0.011 0.091-0.011h1.653c0.207 0 0.375 0.168 0.375 0.375 0 0.031-0.004 0.061-0.011 0.091l-0.233 0.934c-0.109 0.44-0.504 0.748-0.957 0.748v0zM1.99 27.897l0.117 0.468c0.032 0.127 0.16 0.204 0.287 0.172 0.085-0.021 0.151-0.087 0.172-0.172l0.117-0.468-0.693 0z"></path>
</symbol>
<symbol id="icon-location" width="32" height="32" viewBox="0 0 32 32" x="288" y="0">
<path d="M16 2.333c-2.917 0-5.715 1.159-7.778 3.222s-3.222 4.861-3.222 7.778c0 4.265 2.766 8.354 5.726 11.479 1.46 1.541 2.923 2.801 4.022 3.676 0.51 0.406 0.939 0.728 1.252 0.955 0.313-0.227 0.742-0.549 1.252-0.955 1.099-0.875 2.562-2.135 4.022-3.676 2.96-3.125 5.726-7.214 5.726-11.479 0-2.917-1.159-5.715-3.222-7.778s-4.861-3.222-7.778-3.222zM16 30.667c-0.555 0.832-0.555 0.832-0.555 0.832l-0.041-0.028c-0.025-0.017-0.061-0.042-0.108-0.074-0.093-0.064-0.227-0.159-0.397-0.281-0.339-0.245-0.821-0.603-1.397-1.062-1.151-0.916-2.688-2.239-4.228-3.865-3.040-3.209-6.274-7.786-6.274-12.854 0-3.448 1.37-6.754 3.808-9.192s5.745-3.808 9.192-3.808c3.448 0 6.754 1.37 9.192 3.808s3.808 5.745 3.808 9.192c0 5.069-3.234 9.646-6.274 12.854-1.54 1.626-3.077 2.949-4.228 3.865-0.576 0.459-1.057 0.817-1.397 1.062-0.17 0.123-0.304 0.217-0.397 0.281-0.047 0.032-0.083 0.057-0.108 0.074l-0.038 0.025-0.003 0.002c0 0-0.001 0.001-0.556-0.831zM16 30.667l0.555 0.832c-0.336 0.224-0.774 0.224-1.11-0l0.555-0.832z"></path>
<path d="M16 10.333c-1.657 0-3 1.343-3 3s1.343 3 3 3c1.657 0 3-1.343 3-3s-1.343-3-3-3zM11 13.333c0-2.761 2.239-5 5-5s5 2.239 5 5c0 2.761-2.239 5-5 5s-5-2.239-5-5z"></path>
</symbol>
<symbol id="icon-smartphone" viewBox="0 0 24 24">
<path d="M7 1c-0.828 0-1.58 0.337-2.121 0.879s-0.879 1.293-0.879 2.121v16c0 0.828 0.337 1.58 0.879 2.121s1.293 0.879 2.121 0.879h10c0.828 0 1.58-0.337 2.121-0.879s0.879-1.293 0.879-2.121v-16c0-0.828-0.337-1.58-0.879-2.121s-1.293-0.879-2.121-0.879zM7 3h10c0.276 0 0.525 0.111 0.707 0.293s0.293 0.431 0.293 0.707v16c0 0.276-0.111 0.525-0.293 0.707s-0.431 0.293-0.707 0.293h-10c-0.276 0-0.525-0.111-0.707-0.293s-0.293-0.431-0.293-0.707v-16c0-0.276 0.111-0.525 0.293-0.707s0.431-0.293 0.707-0.293zM12 19c0.552 0 1-0.448 1-1s-0.448-1-1-1-1 0.448-1 1 0.448 1 1 1z"></path>
</symbol>
<symbol id="icon-telegram" viewBox="0 0 32 32">
<path d="M27.553 4.956l-23.64 9.116c-1.613 0.648-1.604 1.548-0.296 1.949l6.069 1.893 14.043-8.86c0.664-0.404 1.271-0.187 0.772 0.256l-11.377 10.269-0.419 6.256c0.613 0 0.884-0.281 1.228-0.613l2.948-2.867 6.132 4.529c1.131 0.623 1.943 0.303 2.224-1.047l4.025-18.971c0.412-1.652-0.631-2.4-1.709-1.912z"></path>
</symbol>
<symbol id="icon-wardrobe" viewBox="0 0 32 32">
<path d="M26.485 32h-20.97c-0.207 0-0.375-0.168-0.375-0.375v-31.25c0-0.207 0.168-0.375 0.375-0.375h20.97c0.207 0 0.375 0.168 0.375 0.375v31.25c-0 0.207-0.168 0.375-0.375 0.375zM5.89 31.25h20.22v-30.5h-20.22v30.5z"></path>
<path d="M16 22.878c-0.207 0-0.375-0.12-0.375-0.268v-22.342c0-0.148 0.168-0.268 0.375-0.268s0.375 0.12 0.375 0.268v22.342c0 0.148-0.168 0.268-0.375 0.268z"></path>
<path d="M16 32h-10.485c-0.207 0-0.375-0.168-0.375-0.375v-4.561c0-0.207 0.168-0.375 0.375-0.375h10.485c0.207 0 0.375 0.168 0.375 0.375v4.561c0 0.207-0.168 0.375-0.375 0.375zM5.89 31.25h9.735v-3.811h-9.735v3.811z"></path>
<path d="M16 27.439h-10.485c-0.207 0-0.375-0.168-0.375-0.375v-4.561c0-0.207 0.168-0.375 0.375-0.375h10.485c0.207 0 0.375 0.168 0.375 0.375v4.561c0 0.207-0.168 0.375-0.375 0.375zM5.89 26.689h9.735v-3.811h-9.735l-0 3.811z"></path>
<path d="M11.285 25.159h-1.056c-0.207 0-0.375-0.168-0.375-0.375s0.168-0.375 0.375-0.375h1.056c0.207 0 0.375 0.168 0.375 0.375s-0.168 0.375-0.375 0.375z"></path>
<path d="M13.79 12.273c-0.207 0-0.375-0.168-0.375-0.375v-0.918c0-0.207 0.168-0.375 0.375-0.375s0.375 0.168 0.375 0.375v0.918c0 0.207-0.168 0.375-0.375 0.375z"></path>
<path d="M18.21 16.834c-0.207 0-0.375-0.168-0.375-0.375v-0.918c0-0.207 0.168-0.375 0.375-0.375s0.375 0.168 0.375 0.375v0.918c0 0.207-0.168 0.375-0.375 0.375z"></path>
<path d="M11.285 29.72h-1.056c-0.207 0-0.375-0.168-0.375-0.375s0.168-0.375 0.375-0.375h1.056c0.207 0 0.375 0.168 0.375 0.375s-0.168 0.375-0.375 0.375z"></path>
</symbol>
<symbol id="icon-work-time" width="32" height="32" viewBox="0 0 32 32" x="480" y="0">
<path d="M5.818 5.455c-1.004 0-1.818 0.814-1.818 1.818v20.364c0 1.004 0.814 1.818 1.818 1.818h20.364c1.004 0 1.818-0.814 1.818-1.818v-20.364c0-1.004-0.814-1.818-1.818-1.818h-20.364zM1.818 7.273c0-2.209 1.791-4 4-4h20.364c2.209 0 4 1.791 4 4v20.364c0 2.209-1.791 4-4 4h-20.364c-2.209 0-4-1.791-4-4v-20.364z"></path>
<path d="M21.818 0.364c0.602 0 1.091 0.488 1.091 1.091v5.818c0 0.603-0.488 1.091-1.091 1.091s-1.091-0.488-1.091-1.091v-5.818c0-0.603 0.488-1.091 1.091-1.091z"></path>
<path d="M10.182 0.364c0.602 0 1.091 0.488 1.091 1.091v5.818c0 0.603-0.488 1.091-1.091 1.091s-1.091-0.488-1.091-1.091v-5.818c0-0.603 0.488-1.091 1.091-1.091z"></path>
<path d="M1.818 13.091c0-0.602 0.488-1.091 1.091-1.091h26.182c0.602 0 1.091 0.488 1.091 1.091s-0.488 1.091-1.091 1.091h-26.182c-0.603 0-1.091-0.488-1.091-1.091z"></path>
</symbol>
<symbol id="icon-basket" viewBox="0 0 31 32">
<path d="M11.613 27.29c-0.178 0-0.323 0.144-0.323 0.323s0.144 0.323 0.323 0.323c0.178 0 0.323-0.144 0.323-0.323s-0.144-0.323-0.323-0.323zM9.355 27.613c0-1.247 1.011-2.258 2.258-2.258s2.258 1.011 2.258 2.258c0 1.247-1.011 2.258-2.258 2.258s-2.258-1.011-2.258-2.258z"></path>
<path d="M25.806 27.29c-0.178 0-0.323 0.144-0.323 0.323s0.144 0.323 0.323 0.323c0.178 0 0.323-0.144 0.323-0.323s-0.144-0.323-0.323-0.323zM23.548 27.613c0-1.247 1.011-2.258 2.258-2.258s2.258 1.011 2.258 2.258c0 1.247-1.011 2.258-2.258 2.258s-2.258-1.011-2.258-2.258z"></path>
<path d="M0.323 1.806c0-0.534 0.433-0.968 0.968-0.968h5.161c0.461 0 0.858 0.326 0.949 0.778l1.136 5.674h21.141c0.288 0 0.562 0.129 0.746 0.351s0.259 0.515 0.205 0.798l-2.066 10.833c-0.162 0.817-0.607 1.551-1.255 2.073-0.646 0.52-1.454 0.797-2.283 0.784h-12.525c-0.829 0.014-1.637-0.264-2.283-0.784-0.648-0.522-1.093-1.255-1.255-2.072l-2.157-10.779c-0.008-0.030-0.014-0.060-0.018-0.092l-1.127-5.629h-4.368c-0.534 0-0.968-0.433-0.968-0.968zM8.924 9.226l1.935 9.67c0.074 0.371 0.276 0.705 0.571 0.942s0.664 0.364 1.042 0.356l0.019-0 12.561 0c0.378 0.007 0.747-0.119 1.042-0.356 0.294-0.237 0.496-0.569 0.57-0.939l0.001-0.003 1.844-9.67h-19.584z"></path>
</symbol>
<symbol id="icon-arrow-right" viewBox="0 0 19 32">
<path d="M17.021 15.652c0 0.561-0.204 1.122-0.612 1.55l-12.839 13.46c-0.817 0.856-2.141 0.856-2.957 0s-0.816-2.244 0-3.1l11.361-11.91-11.361-11.91c-0.816-0.856-0.816-2.244 0-3.1s2.141-0.857 2.957 0l12.839 13.46c0.408 0.428 0.612 0.989 0.612 1.55z"></path>
</symbol>
<symbol id="icon-arrow-left" viewBox="0 0 21 32">
<path d="M1.816 15.652c0-0.561 0.209-1.122 0.625-1.55l13.119-13.46c0.835-0.856 2.187-0.856 3.022 0s0.834 2.244 0 3.1l-11.608 11.91 11.608 11.91c0.834 0.856 0.834 2.244 0 3.1s-2.187 0.857-3.022 0l-13.119-13.46c-0.417-0.428-0.625-0.989-0.625-1.55z"></path>
</symbol>
<symbol id="icon-arrow-down" viewBox="0 0 32 32">
<path d="M54.121 1.879c1.172 1.172 1.172 3.071 0 4.243l-24 24c-1.172 1.172-3.071 1.172-4.243 0l-24-24c-1.172-1.172-1.172-3.071 0-4.243s3.071-1.172 4.243 0l21.879 21.879 21.879-21.879c1.172-1.172 3.071-1.172 4.242 0z"></path>
</symbol>
<symbol id="icon-armchair" viewBox="0 0 32 32">
<path d="M24.287 16.852h-16.574c-0.796-0.001-1.441-0.646-1.442-1.442v-10.408c0.001-0.796 0.646-1.441 1.442-1.442h16.574c0.796 0.001 1.441 0.646 1.442 1.442v10.408c-0.001 0.796-0.646 1.441-1.442 1.442zM7.713 4.31c-0.382 0-0.692 0.31-0.692 0.692v10.408c0 0.382 0.31 0.692 0.692 0.692h16.574c0.382-0 0.692-0.31 0.692-0.692v-10.408c-0-0.382-0.31-0.692-0.692-0.692h-16.574z"></path>
<path d="M24.287 26.206h-16.574c-0.796-0.001-1.441-0.646-1.442-1.442v-7.22c0.001-0.796 0.646-1.441 1.442-1.442h16.574c0.796 0.001 1.441 0.646 1.442 1.442v7.22c-0.001 0.796-0.646 1.441-1.442 1.442zM7.713 16.852c-0.382 0-0.692 0.31-0.692 0.692v7.22c0 0.382 0.31 0.692 0.692 0.692h16.574c0.382-0 0.692-0.31 0.692-0.692v-7.22c-0-0.382-0.31-0.692-0.692-0.692l-16.574-0z"></path>
<path d="M30.558 26.206h-4.137c-0.796-0.001-1.441-0.646-1.442-1.442v-12.654c0.001-0.796 0.646-1.441 1.442-1.442h4.137c0.796 0.001 1.441 0.646 1.442 1.442v12.653c-0.001 0.796-0.646 1.441-1.442 1.442zM26.421 11.418c-0.382 0-0.692 0.31-0.692 0.692v12.653c0 0.382 0.31 0.692 0.692 0.692h4.137c0.382-0 0.692-0.31 0.692-0.692v-12.653c-0-0.382-0.31-0.692-0.692-0.692h-4.137z"></path>
<path d="M5.579 26.206h-4.137c-0.796-0.001-1.441-0.646-1.442-1.442v-12.653c0.001-0.796 0.646-1.441 1.442-1.442h4.137c0.796 0.001 1.441 0.646 1.442 1.442v12.653c-0.001 0.796-0.646 1.441-1.442 1.442zM1.442 11.418c-0.382 0-0.692 0.31-0.692 0.692v12.653c0 0.382 0.31 0.692 0.692 0.692h4.137c0.382-0 0.692-0.31 0.692-0.692v-12.653c-0-0.382-0.31-0.692-0.692-0.692h-4.137z"></path>
<path d="M25.354 21.529h-18.708c-0.207 0-0.375-0.168-0.375-0.375s0.168-0.375 0.375-0.375h18.708c0.207 0 0.375 0.168 0.375 0.375s-0.168 0.375-0.375 0.375z"></path>
<path d="M3.51 28.44c-0.621 0.001-1.163-0.422-1.313-1.025l-0.372-1.494c-0.050-0.201 0.072-0.404 0.273-0.455 0.030-0.007 0.060-0.011 0.091-0.011h2.642c0.207 0 0.375 0.168 0.375 0.375 0 0.031-0.004 0.061-0.011 0.091l-0.372 1.494c-0.15 0.603-0.691 1.026-1.312 1.025v0zM2.669 26.206l0.256 1.028c0.081 0.323 0.408 0.52 0.731 0.439 0.216-0.054 0.385-0.223 0.439-0.439l0.256-1.028h-1.682z"></path>
<path d="M28.49 28.44c-0.621 0.001-1.163-0.422-1.313-1.025l-0.372-1.493c-0.050-0.201 0.072-0.404 0.273-0.455 0.030-0.007 0.060-0.011 0.091-0.011h2.642c0.207 0 0.375 0.168 0.375 0.375 0 0.031-0.004 0.061-0.011 0.091l-0.372 1.493c-0.15 0.603-0.691 1.026-1.313 1.025v0zM27.648 26.206l0.256 1.028c0.081 0.323 0.408 0.52 0.731 0.439 0.216-0.054 0.385-0.223 0.439-0.439l0.256-1.028-1.682 0z"></path>
</symbol>
</defs>
</svg>
